<?xml version="1.0" encoding="UTF-8"?> <svg xmlns="http://www.w3.org/2000/svg" width="79" height="12" viewBox="0 0 79 12" fill="none"><path d="M0.959473 11.3159V4.75342H0V2.99561H0.959473V0.205078H2.95898V2.99561H4.16748V4.75342H2.95898V11.3159H0.959473ZM5.12695 11.3159V2.99561H6.05713H6.9873V3.62549L7.08252 3.49365C7.45361 2.97607 8.02734 2.71729 8.80371 2.71729H8.93555V4.62158C8.37402 4.66064 7.94434 4.80713 7.64648 5.06104C7.2998 5.36377 7.12646 5.84229 7.12646 6.49658V11.3159H6.13037H5.12695ZM13.5205 11.5942C12.3779 11.5942 11.4038 11.1646 10.5981 10.3052C9.79248 9.44092 9.38965 8.39355 9.38965 7.16309C9.38965 5.93262 9.79248 4.88525 10.5981 4.021C11.4038 3.15186 12.3804 2.71729 13.5278 2.71729C14.6362 2.71729 15.5762 3.11523 16.3477 3.91113V2.99561H18.186V11.3159H17.2705H16.3477V10.4077C15.5664 11.1938 14.624 11.5894 13.5205 11.5942ZM13.8501 4.52637C13.1519 4.52637 12.5684 4.78027 12.0996 5.28809C11.6309 5.79102 11.3965 6.41602 11.3965 7.16309C11.3965 7.90527 11.6309 8.52783 12.0996 9.03076C12.5684 9.53369 13.1494 9.78516 13.8428 9.78516C14.541 9.78516 15.1245 9.53369 15.5933 9.03076C16.0669 8.52783 16.3037 7.90283 16.3037 7.15576C16.3037 6.40869 16.0693 5.78369 15.6006 5.28076C15.1318 4.77783 14.5483 4.52637 13.8501 4.52637ZM21.8262 4.75342V11.3159H20.8301H19.8267V4.75342H19.1162V2.99561H19.8267C19.8657 2.10205 20.1196 1.38916 20.5884 0.856934C21.0913 0.285645 21.7896 0 22.6831 0L23.0859 0.00732422V1.94824H22.9834C22.5732 1.94824 22.2778 2.02881 22.0972 2.18994C21.9165 2.35107 21.8262 2.6123 21.8262 2.97363V2.99561H23.0054V4.75342H21.8262ZM26.0303 4.75342V11.3159H25.0342H24.0308V4.75342H23.3203V2.99561H24.0308C24.0698 2.10205 24.3237 1.38916 24.7925 0.856934C25.2954 0.285645 25.9937 0 26.8872 0L27.29 0.00732422V1.94824H27.1875C26.7773 1.94824 26.4819 2.02881 26.3013 2.18994C26.1206 2.35107 26.0303 2.6123 26.0303 2.97363V2.99561H27.2095V4.75342H26.0303ZM76.4429 9.32373H78.4497V11.3159H76.4429V9.32373Z" fill="white"></path><path d="M31.4502 5.24414C31.4014 5.00977 31.3086 4.83398 31.1719 4.7168C31.0352 4.59961 30.8594 4.54102 30.6445 4.54102C30.415 4.54102 30.2271 4.60693 30.0806 4.73877C29.939 4.87061 29.8682 5.0415 29.8682 5.25146C29.8682 5.45166 29.9585 5.61279 30.1392 5.73486C30.3198 5.85693 30.6665 5.99609 31.1792 6.15234C32.0532 6.4209 32.6782 6.75537 33.0542 7.15576C33.4253 7.55615 33.6108 8.08838 33.6108 8.75244C33.6108 9.5874 33.335 10.271 32.7832 10.8032C32.2314 11.3306 31.5234 11.5942 30.6592 11.5942C29.7852 11.5942 29.0625 11.3281 28.4912 10.7959C27.9248 10.2588 27.6221 9.55811 27.583 8.69385H29.6338C29.6924 9.04541 29.812 9.31396 29.9927 9.49951C30.1733 9.68018 30.4077 9.77051 30.6958 9.77051C30.9692 9.77051 31.1938 9.69482 31.3696 9.54346C31.5454 9.39209 31.6333 9.19678 31.6333 8.95752C31.6333 8.69873 31.5527 8.49854 31.3916 8.35693C31.2305 8.21533 30.9204 8.07373 30.4614 7.93213C29.5386 7.64893 28.877 7.30713 28.4766 6.90674C28.0811 6.51123 27.8833 5.98877 27.8833 5.33936C27.8833 4.56787 28.147 3.93799 28.6743 3.44971C29.2017 2.96143 29.8779 2.71729 30.7031 2.71729C31.4258 2.71729 32.0459 2.95898 32.5635 3.44238C33.0811 3.92578 33.3618 4.52637 33.4058 5.24414H31.4502ZM43.0151 8.60596C42.7368 9.51416 42.2192 10.2393 41.4624 10.7812C40.7104 11.3232 39.8438 11.5942 38.8623 11.5942C37.6416 11.5942 36.6016 11.1646 35.7422 10.3052C34.8877 9.44092 34.4604 8.39355 34.4604 7.16309C34.4604 5.93262 34.8877 4.88525 35.7422 4.021C36.6016 3.15186 37.6416 2.71729 38.8623 2.71729C39.8535 2.71729 40.73 2.99316 41.4917 3.54492C42.2534 4.0918 42.7759 4.82422 43.0591 5.74219H40.8325C40.6421 5.35156 40.376 5.05371 40.0342 4.84863C39.6973 4.64355 39.2993 4.54102 38.8403 4.54102C38.1812 4.54102 37.6196 4.79004 37.1558 5.28809C36.6968 5.78613 36.4673 6.3916 36.4673 7.10449C36.4673 7.86133 36.7041 8.49609 37.1777 9.00879C37.6514 9.5166 38.2373 9.77051 38.9355 9.77051C39.3213 9.77051 39.6802 9.66553 40.0122 9.45557C40.3491 9.24561 40.6079 8.9624 40.7886 8.60596H43.0151ZM44.3262 11.3159V0.219727H45.3223H46.3257V3.58154C46.9458 2.99561 47.6685 2.70752 48.4937 2.71729C49.4751 2.71729 50.2539 3.04932 50.8301 3.71338C51.4111 4.37744 51.7017 5.27588 51.7017 6.40869V11.3159H50.7056H49.7021V6.84814C49.7021 6.09131 49.5605 5.51758 49.2773 5.12695C48.999 4.73145 48.5889 4.53369 48.0469 4.53369C47.4707 4.53369 47.0386 4.73389 46.7505 5.13428C46.4673 5.53467 46.3257 6.13525 46.3257 6.93604V11.3159H45.3296H44.3262ZM57.3193 11.5942C56.0938 11.5942 55.0488 11.1646 54.1846 10.3052C53.3252 9.44092 52.8955 8.39355 52.8955 7.16309C52.8955 5.93262 53.3252 4.88525 54.1846 4.021C55.0488 3.15186 56.0938 2.71729 57.3193 2.71729C58.5498 2.71729 59.5947 3.15186 60.4541 4.021C61.3184 4.88525 61.7505 5.93262 61.7505 7.16309C61.7505 8.39355 61.3184 9.44092 60.4541 10.3052C59.5947 11.1646 58.5498 11.5942 57.3193 11.5942ZM57.3193 9.77051C58.0078 9.77051 58.584 9.52148 59.0479 9.02344C59.5117 8.52539 59.7437 7.90527 59.7437 7.16309C59.7437 6.4209 59.5117 5.79834 59.0479 5.29541C58.584 4.79248 58.0078 4.54102 57.3193 4.54102C56.6357 4.54102 56.062 4.79248 55.5981 5.29541C55.1343 5.79834 54.9023 6.4209 54.9023 7.16309C54.9023 7.90527 55.1343 8.52539 55.5981 9.02344C56.062 9.52148 56.6357 9.77051 57.3193 9.77051ZM66.9287 11.5942C65.7031 11.5942 64.6582 11.1646 63.7939 10.3052C62.9346 9.44092 62.5049 8.39355 62.5049 7.16309C62.5049 5.93262 62.9346 4.88525 63.7939 4.021C64.6582 3.15186 65.7031 2.71729 66.9287 2.71729C68.1592 2.71729 69.2041 3.15186 70.0635 4.021C70.9277 4.88525 71.3599 5.93262 71.3599 7.16309C71.3599 8.39355 70.9277 9.44092 70.0635 10.3052C69.2041 11.1646 68.1592 11.5942 66.9287 11.5942ZM66.9287 9.77051C67.6172 9.77051 68.1934 9.52148 68.6572 9.02344C69.1211 8.52539 69.353 7.90527 69.353 7.16309C69.353 6.4209 69.1211 5.79834 68.6572 5.29541C68.1934 4.79248 67.6172 4.54102 66.9287 4.54102C66.2451 4.54102 65.6714 4.79248 65.2075 5.29541C64.7437 5.79834 64.5117 6.4209 64.5117 7.16309C64.5117 7.90527 64.7437 8.52539 65.2075 9.02344C65.6714 9.52148 66.2451 9.77051 66.9287 9.77051ZM72.5537 11.3159V0.219727H73.5498H74.5532V11.3159H73.5571H72.5537Z" fill="#FF0000"></path></svg> 